<svg version="1.1"
      xmlns="http://www.w3.org/2000/svg"
      xmlns:xlink="http://www.w3.org/1999/xlink"  id="snapshot-17327" width="125" height="125" viewBox="0 0 125 125"><desc>This image was made on Patterninja.com</desc><defs>
<!-- image 14119 -->
<g id="transformed-14119" data-image="14119" transform="translate(-100, -100) rotate(0, 100, 100)"><g><svg version="1.1" width="200px" height="200px" viewBox="0 0 200 200"><g id="original-14119"><svg xmlns="http://www.w3.org/2000/svg" data-name="Livello 1" viewBox="0 0 1080 1080" xmlns:xlink="http://www.w3.org/1999/xlink" version="1.1" preserveAspectRatio="xMidYMid meet">
  <path d="M459.37 575.64H433A70.36 70.36 0 0 1 430.3 435l.74 20.87a49.48 49.48 0 0 0 2 98.92h26.33z" fill="rgba(87, 123, 193, 1)" stroke="none"/>
  <path d="M644.3 575.64h-23.81l18.21-20.88h5.6c47 0 52.12-34 52.12-48.63a52.15 52.15 0 0 0-52-52.14v-20.88a73.05 73.05 0 0 1 72.92 73c-.04 33.62-19.22 69.53-73.04 69.53z" fill="rgba(87, 123, 193, 1)" stroke="none"/>
  <path d="M578.17 343.77a77.79 77.79 0 0 0-64.61 34.81 70.35 70.35 0 0 0-65.9 122.25l7.4-21.32a49.5 49.5 0 0 1 49.77-81.82l-76.76 215.25h59l-27.28 123.63 158.56-181.32h-44.48l26.94-78c6.59-13.05 23-22.35 40.94-23.21l6.89-.33 2.4-6.47a74.36 74.36 0 0 0 4.56-26 77.55 77.55 0 0 0-77.43-77.47zm55.13 90.13c-22.95 3.29-42.7 16.43-51.54 34.79l-37.19 107.43h27.79l-74.58 85.29 15.33-69.35h-55.43l69.93-196.13a56.53 56.53 0 0 1 107.11 25.33 55.28 55.28 0 0 1-1.42 12.64z" fill="rgba(87, 123, 193, 1)" stroke="none"/>
</svg>
</g></svg></g></g>
<!-- /image 14119 -->
</defs><rect x="0" y="0" width="125" height="125" fill="rgba(52, 76, 183, 1)"></rect><use xlink:href="#transformed-14119" transform="translate(-125, -125)"></use><use xlink:href="#transformed-14119" transform="translate(0, -125)"></use><use xlink:href="#transformed-14119" transform="translate(125, -125)"></use><use xlink:href="#transformed-14119" transform="translate(-125, 0)"></use><use xlink:href="#transformed-14119" transform="translate(0, 0)"></use><use xlink:href="#transformed-14119" transform="translate(125, 0)"></use><use xlink:href="#transformed-14119" transform="translate(-125, 125)"></use><use xlink:href="#transformed-14119" transform="translate(0, 125)"></use><use xlink:href="#transformed-14119" transform="translate(125, 125)"></use></svg>