<svg id="Livello_1" data-name="Livello 1" xmlns="http://www.w3.org/2000/svg" viewBox="0 0 1080 1080"><path d="M194.76,562.3H178.2a44.24,44.24,0,0,1-1.73-88.45l.47,13.12a31.11,31.11,0,0,0,1.26,62.2h16.56Z" style="fill:#fff"/><path d="M311,562.3h-15l11.45-13.13H311c29.59,0,32.78-21.38,32.78-30.58a32.79,32.79,0,0,0-32.72-32.78V472.68A45.93,45.93,0,0,1,357,518.59C357,539.72,344.89,562.3,311,562.3Z" style="fill:#fff"/><path d="M269.46,416.5a48.93,48.93,0,0,0-40.63,21.89,44.23,44.23,0,0,0-41.44,76.87l4.66-13.41a31.11,31.11,0,0,1,31.29-51.44L175.07,585.76H212.2L195,663.5l99.71-114h-28l16.94-49.05c4.14-8.2,14.43-14.05,25.74-14.59l4.34-.21,1.5-4.07a46.65,46.65,0,0,0,2.87-16.33A48.76,48.76,0,0,0,269.46,416.5Zm34.67,56.67c-14.43,2.07-26.85,10.34-32.41,21.88l-23.39,67.56h17.48l-46.9,53.63,9.64-43.61H193.69l44-123.33A35.54,35.54,0,0,1,305,465.23,35.2,35.2,0,0,1,304.13,473.17Z" style="fill:#fff"/><path d="M445.48,505.09l-21.79,57.07H412.55l-21.8-57.07h16.16l11.21,29.22,11.13-29.22Z" style="fill:#fff"/><path d="M505.8,533.63a28.54,28.54,0,1,1-28.54-28.54A28.55,28.55,0,0,1,505.8,533.63Zm-15.13,0A13.41,13.41,0,1,0,477.26,547,13.38,13.38,0,0,0,490.67,533.63Z" style="fill:#fff"/><path d="M516.72,481h15.12v81.13H516.72Z" style="fill:#fff"/><path d="M586.93,544.08l4.13,14.57-7.29,2.07a40.26,40.26,0,0,1-10.52,1.37c-12.72,0-21.66-9.56-21.66-23.17V520.15h-8.8V505h8.87V481h15.13V505h19.87v15.13H566.79v18.77c0,5.36,2.2,8.05,6.53,8.05a24,24,0,0,0,6.46-.83Z" style="fill:#fff"/><path d="M638.76,547.93c0,8.59-7.9,14.16-20.21,14.16a43.48,43.48,0,0,1-17.19-3l1-1.86A41.16,41.16,0,0,0,618.55,560c11.21,0,18.15-4.61,18.15-12.1s-6.74-10.8-12.37-12.17l-9.56-2.41c-9.08-2.2-13.89-7.08-13.89-14.16,0-8.6,7.91-14.17,20.21-14.17a43.54,43.54,0,0,1,16.44,2.75l-1,1.86a42.91,42.91,0,0,0-15.47-2.47c-11.2,0-18.15,4.6-18.15,12.1s6.74,10.79,12.38,12.17l9.56,2.4C634,536,638.76,540.92,638.76,547.93Z" style="fill:#fff"/><path d="M701.36,552.33l1.45,1.44a28.1,28.1,0,0,1-20.15,8.39,28.54,28.54,0,1,1,21-47.85l-1.51,1.37a26.47,26.47,0,1,0-19.46,44.42A26.09,26.09,0,0,0,701.36,552.33Z" style="fill:#fff"/><path d="M749,505.09v2.07h-1A26.92,26.92,0,0,0,721.1,534v28.12H719V505.09h2.06v18.22A29,29,0,0,1,748,505.09Z" style="fill:#fff"/><path d="M761.06,483c0-2,3.44-2.38,3.44,0a1.72,1.72,0,0,1-3.44,0Zm.69,22.08h2.06v57.07h-2.06Z" style="fill:#fff"/><path d="M836.94,533.63a28.53,28.53,0,0,1-55,10.65V593.1h-2.07v-88h2.07V523a28.53,28.53,0,0,1,55,10.66Zm-2.06,0a26.47,26.47,0,1,0-26.47,26.47A26.48,26.48,0,0,0,834.88,533.63Z" style="fill:#fff"/><path d="M881.9,562.16c-10.94,0-17.95-7.7-17.95-19.66V507.16H852.26v-2.07H864v-23H866v23h30v2.07H866V542.5c0,13,8.18,17.6,15.89,17.6a39,39,0,0,0,10.86-1.58l.55,2A41.41,41.41,0,0,1,881.9,562.16Z" style="fill:#fff"/><path d="M946,547.93c0,8.59-7.9,14.16-20.21,14.16a43.48,43.48,0,0,1-17.19-3l1-1.86A41.16,41.16,0,0,0,925.82,560C937,560,944,555.42,944,547.93s-6.74-10.8-12.37-12.17L922,533.35c-9.08-2.2-13.89-7.08-13.89-14.16,0-8.6,7.91-14.17,20.21-14.17a43.54,43.54,0,0,1,16.44,2.75l-1,1.86a42.91,42.91,0,0,0-15.47-2.47c-11.2,0-18.15,4.6-18.15,12.1s6.74,10.79,12.38,12.17l9.56,2.4C941.22,536,946,540.92,946,547.93Z" style="fill:#fff"/></svg>